#!OML:ASF I:\Actors\actors\Patient Classification 1\Patient 1\Session 1\Subject1.ASF
:FULLY-SPECIFIED
:DEGREES
215
root 1.17811 17.4561 10.0483 11.1071 2.07776 -8.29668
lowerback -1.89784 0.691449 7.33192
upperback -11.0524 1.4236 2.0146
thorax -10.668 0.139936 -2.01739
lowerneck -13.987 -4.64007 -1.31278
upperneck 19.9866 -6.78034 2.76598
head 8.68781 -3.01364 0.360637
rclavicle 8.52289e-015 -2.36554e-014
rhumerus -33.6193 48.639 -107.974
rradius 113.295
rwrist -15.3224
rhand -16.5475 311.711
rfingers 7.12502
rthumb 9.67195 281.953
lclavicle 8.52289e-015 -2.36554e-014
lhumerus -39.2685 -51.2125 109.703
lradius 104.89
lwrist -10.9118
lhand -55.2749 -59.5226
lfingers 7.12502
lthumb -27.6431 328.466
rfemur -5.1464 20.9323 24.9932
rtibia 10.3491
rfoot -16.3929 -22.4419
rtoes -4.21743
lfemur 3.28872 -33.952 -11.2908
ltibia -1.63305
lfoot -14.9832 39.7547
ltoes -3.23508
216
root 1.19635 17.5545 10.0565 11.253 2.09053 -8.43944
lowerback -1.92618 0.798914 7.91524
upperback -11.269 1.60113 1.96459
thorax -10.889 0.157709 -2.40333
lowerneck -13.9975 -4.60003 -1.33808
upperneck 21.1952 -6.66449 2.29086
head 9.08393 -2.9929 0.205412
rclavicle 7.52897e-015 -4.90004e-014
rhumerus -30.7082 49.1768 -105.403
rradius 114.778
rwrist -14.2477
rhand -15.9925 311.045
rfingers 7.12502
rthumb 10.2074 281.313
lclavicle 7.52897e-015 -4.90004e-014
lhumerus -36.4705 -52.234 107.3
lradius 106.234
lwrist -12.3143
lhand -55.9122 -59.4283
lfingers 7.12502
lthumb -28.2523 328.462
rfemur -5.23283 20.1746 25.0364
rtibia 10.0435
rfoot -14.737 -21.8885
rtoes -5.41812
lfemur 3.09139 -33.8931 -11.0785
ltibia -1.66417
lfoot -13.7626 39.6296
ltoes -4.07084
217
root 1.1913 17.6784 10.0755 11.3463 1.92094 -8.34446
lowerback -2.07393 0.915692 7.76208
upperback -11.323 1.74069 1.96791
thorax -10.8475 0.241408 -2.3222
lowerneck -13.9409 -4.61166 -0.876427
upperneck 21.8387 -6.54867 1.16635
head 9.23402 -3.01653 -0.243295
rclavicle -2.98177e-016 9.0447e-015
rhumerus -27.6066 48.6953 -102.81
rradius 115.992
rwrist -13.4812
rhand -14.6362 310.81
rfingers 7.12502
rthumb 11.5156 281.147
lclavicle -2.98177e-016 9.0447e-015
lhumerus -32.9087 -53.2822 104.44
lradius 107.292
lwrist -12.7284
lhand -56.0204 -59.0208
lfingers 7.12502
lthumb -28.3558 328.852
rfemur -5.29812 20.1733 24.8302
rtibia 9.75016
rfoot -12.8628 -21.7128
rtoes -4.71796
lfemur 2.68844 -33.2984 -10.8789
ltibia -1.51654
lfoot -12.1936 39.1597
ltoes -4.76661
218
root 1.18362 17.8112 10.0891 11.4697 1.80737 -8.36045
lowerback -2.59355 1.03459 7.70883
upperback -11.0561 1.82627 1.97197
thorax -10.2161 0.31668 -2.28594
lowerneck -14.4062 -4.55175 -0.367614
upperneck 22.3677 -6.39997 0.331642
head 9.45374 -2.98598 -0.6132
rclavicle -2.30093e-014 3.08116e-014
rhumerus -23.4079 49.0118 -99.2579
rradius 116.638
rwrist -13.2698
rhand -13.1234 311.147
rfingers 7.12502
rthumb 12.9742 281.57
lclavicle -2.30093e-014 3.08116e-014
lhumerus -27.8995 -54.276 100.396
lradius 107.942
lwrist -12.5511
lhand -56.0523 -58.3351
lfingers 7.12502
lthumb -28.3862 329.533
rfemur -5.49315 20.4091 24.6964
rtibia 9.50966
rfoot -10.9288 -21.6056
rtoes -3.24678
lfemur 2.00502 -32.3203 -10.3622
ltibia -1.21184
lfoot -10.3565 38.3739
ltoes -5.38125
219
root 1.18465 17.9413 10.0918 11.5556 1.86939 -8.39176
lowerback -2.56646 1.03987 7.75199
upperback -10.9996 1.83975 2.04067
thorax -10.168 0.326279 -2.23755
lowerneck -14.7587 -4.48214 -0.884464
upperneck 22.87 -6.2815 0.715794
head 9.72947 -2.92021 -0.400308
rclavicle -8.93289e-015 1.95803e-014
rhumerus -20.41 49.1516 -96.5022
rradius 117.246
rwrist -13.6666
rhand -16.582 310.191
rfingers 7.12502
rthumb 9.63867 280.432
lclavicle -8.93289e-015 1.95803e-014
lhumerus -23.8178 -54.9628 97.1592
lradius 108.059
lwrist -11.3123
lhand -55.7301 -58.3552
lfingers 7.12502
lthumb -28.0783 329.563
rfemur -5.71825 20.3981 24.5583
rtibia 9.37556
rfoot -9.00674 -21.3524
rtoes -2.17731
lfemur 1.20196 -31.0442 -9.79766
ltibia -0.827237
lfoot -7.9843 37.101
ltoes -6.64001
220
root 1.18054 18.0651 10.0918 11.628 1.95453 -8.26311
lowerback -2.74602 0.975297 7.49829
upperback -10.7588 1.71917 2.16198
thorax -9.79878 0.313672 -1.95918
lowerneck -14.1492 -4.37207 -0.0759001
upperneck 22.0117 -6.00693 -0.488975
head 9.24049 -2.8762 -0.87818
rclavicle -6.23687e-015 -2.5345e-014
rhumerus -17.6676 49.1711 -93.881
rradius 117.873
rwrist -15.4301
rhand -15.9377 309.097
rfingers 7.12502
rthumb 10.2602 279.367
lclavicle -6.23687e-015 -2.5345e-014
lhumerus -20.4343 -55.2067 94.2727
lradius 108.292
lwrist -11.2192
lhand -55.7873 -57.8664
lfingers 7.12502
lthumb -28.1329 330.043
rfemur -6.02136 20.4424 24.2546
rtibia 9.39312
rfoot -7.21984 -21.2284
rtoes -0.929627
lfemur 0.337257 -29.6798 -9.36822
ltibia -0.367431
lfoot -5.56826 35.526
ltoes -7.83143
221
root 1.17311 18.1735 10.0877 11.6353 2.14302 -8.1344
lowerback -2.62279 0.830852 7.23177
upperback -10.6136 1.52755 2.26403
thorax -9.72516 0.25297 -1.69572
lowerneck -13.8346 -4.2896 -0.00245912
upperneck 21.6784 -5.83609 -0.761044
head 9.05515 -2.82562 -0.946741
rclavicle 1.37286e-015 1.94685e-014
rhumerus -16.8707 49.4234 -92.9593
rradius 118.3
rwrist -13.3684
rhand -16.1756 309.593
rfingers 7.12502
rthumb 10.0307 279.852
lclavicle 1.37286e-015 1.94685e-014
lhumerus -19.0777 -55.3765 92.8078
lradius 108.776
lwrist -10.8767
lhand -55.3822 -60.8283
lfingers 7.12502
lthumb -27.7456 327.144
rfemur -6.28343 20.4606 24.0236
rtibia 9.48532
rfoot -5.73085 -21.2809
rtoes 0.57872
lfemur -0.540888 -28.4734 -8.95221
ltibia 0.251428
lfoot -3.24702 33.8027
ltoes -9.20696
222
root 1.16344 18.2566 10.0793 11.532 2.39674 -7.97167
lowerback -2.57192 0.683231 6.99149
upperback -10.4276 1.31556 2.2755
thorax -9.55964 0.178031 -1.54172
lowerneck -13.2061 -4.16311 -0.105536
upperneck 21.2384 -5.65392 -0.641965
head 8.79608 -2.74287 -0.843467
rclavicle -1.1632e-015 5.56721e-014
rhumerus -16.678 49.386 -92.7025
rradius 118.479
rwrist -12.6603
rhand -15.1065 308.726
rfingers 7.12502
rthumb 11.062 279.038
lclavicle -1.1632e-015 5.56721e-014
lhumerus -19.2454 -55.5577 92.5783
lradius 108.996
lwrist -11.5815
lhand -54.5466 -62.4327
lfingers 7.12502
lthumb -26.9464 325.666
rfemur -6.4032 20.4841 23.8502
rtibia 9.61992
rfoot -4.69558 -21.5154
rtoes 2.43915
lfemur -1.33061 -27.5322 -8.67622
ltibia 1.01163
lfoot -1.28072 32.1068
ltoes -10.5623
223
root 1.15307 18.3103 10.0706 11.3734 2.64014 -7.86951
lowerback -2.23296 0.411888 6.82001
upperback -10.1971 0.974969 2.44453
thorax -9.5274 0.0378963 -1.25283
lowerneck -13.4752 -3.8068 -0.431436
upperneck 21.4284 -5.12357 -0.462847
head 8.92789 -2.4966 -0.679147
rclavicle 1.46107e-014 3.80673e-014
rhumerus -16.8969 49.7193 -93.012
rradius 118.272
rwrist -13.4625
rhand -16.2017 309.296
rfingers 7.12502
rthumb 10.0056 279.554
lclavicle 1.46107e-014 3.80673e-014
lhumerus -20.2285 -55.1092 93.2793
lradius 109.081
lwrist -11.4892
lhand -55.2229 -61.7812
lfingers 7.12502
lthumb -27.5933 326.216
rfemur -6.45998 20.54 23.8207
rtibia 9.84441
rfoot -4.16302 -21.8253
rtoes 3.94578
lfemur -1.98707 -26.7465 -8.4329
ltibia 1.77988
lfoot -0.109025 30.5885
ltoes -11.1482
